<svg xmlns="http://www.w3.org/2000/svg" xmlns:xlink="http://www.w3.org/1999/xlink" preserveAspectRatio="xMidYMid" width="21" height="20.78" viewBox="0 0 21 20.78">
  <defs>
    <style>
      .cls-1 {
        fill: #efe1ac;
        fill-rule: evenodd;
      }
    </style>
  </defs>
  <path d="M6.195,8.413 L4.725,9.867 L9.450,14.541 L19.950,4.154 L18.480,2.700 L9.450,11.633 L6.195,8.413 ZM18.900,10.386 C18.900,14.956 15.120,18.696 10.500,18.696 C5.880,18.696 2.100,14.956 2.100,10.386 C2.100,5.816 5.880,2.077 10.500,2.077 C11.340,2.077 12.075,2.181 12.810,2.388 L14.490,0.726 C13.230,0.311 11.865,-0.001 10.500,-0.001 C4.725,-0.001 -0.000,4.673 -0.000,10.386 C-0.000,16.099 4.725,20.773 10.500,20.773 C16.275,20.773 21.000,16.099 21.000,10.386 L18.900,10.386 Z" class="cls-1"/>
</svg>
